<svg width="19" height="19" viewBox="0 0 19 19" fill="none" xmlns="http://www.w3.org/2000/svg">
<path d="M9.49996 16.8823C9.31524 16.8823 9.13051 16.8493 8.94579 16.7834C8.76107 16.7174 8.59614 16.6184 8.451 16.4865C7.59336 15.6948 6.83468 14.923 6.17496 14.1709C5.51524 13.4188 4.9645 12.6899 4.52275 11.9843C4.081 11.2787 3.74454 10.5991 3.51338 9.94575C3.28221 9.29236 3.16663 8.66879 3.16663 8.07504C3.16663 6.09587 3.80339 4.51914 5.07692 3.34483C6.35045 2.17053 7.82479 1.58337 9.49996 1.58337C11.1751 1.58337 12.6497 2.17053 13.9238 3.34483C15.1978 4.51914 15.8343 6.09587 15.8333 8.07504C15.8333 8.66879 15.718 9.29236 15.4873 9.94575C15.2567 10.5991 14.9202 11.2787 14.478 11.9843C14.0357 12.6899 13.4847 13.4188 12.825 14.1709C12.1652 14.923 11.4066 15.6948 10.5489 16.4865C10.4038 16.6184 10.2388 16.7174 10.0541 16.7834C9.8694 16.8493 9.68468 16.8823 9.49996 16.8823ZM9.49996 9.50004C9.93538 9.50004 10.3083 9.34514 10.6186 9.03533C10.9289 8.72553 11.0838 8.35265 11.0833 7.91671C11.0828 7.48076 10.9279 7.10815 10.6186 6.79887C10.3093 6.4896 9.93643 6.33443 9.49996 6.33337C9.06349 6.33232 8.69088 6.48749 8.38213 6.79887C8.07338 7.11026 7.91821 7.48287 7.91663 7.91671C7.91504 8.35054 8.07021 8.72342 8.38213 9.03533C8.69404 9.34725 9.06665 9.50215 9.49996 9.50004Z" fill="black"/>
</svg>
