<svg width="19" height="19" viewBox="0 0 19 19" fill="none" xmlns="http://www.w3.org/2000/svg">
<path d="M3.16671 15.8333C2.73129 15.8333 2.35868 15.6784 2.04887 15.3686C1.73907 15.0588 1.5839 14.6859 1.58337 14.25V4.74996C1.58337 4.31454 1.73854 3.94193 2.04887 3.63213C2.35921 3.32232 2.73182 3.16715 3.16671 3.16663H15.8334C16.2688 3.16663 16.6417 3.32179 16.952 3.63213C17.2623 3.94246 17.4172 4.31507 17.4167 4.74996V14.25C17.4167 14.6854 17.2618 15.0583 16.952 15.3686C16.6422 15.6789 16.2693 15.8338 15.8334 15.8333H3.16671ZM9.50004 10.2916L3.16671 6.33329V14.25H15.8334V6.33329L9.50004 10.2916ZM9.50004 8.70829L15.8334 4.74996H3.16671L9.50004 8.70829ZM3.16671 6.33329V4.74996V14.25V6.33329Z" fill="black"/>
</svg>
