<svg width="19" height="19" viewBox="0 0 19 19" fill="none" xmlns="http://www.w3.org/2000/svg">
<path d="M15.8333 9.5C15.6222 9.5 15.4343 9.424 15.2697 9.272C15.105 9.12 15.0092 8.93211 14.9823 8.70833C14.8108 7.48125 14.2928 6.43546 13.4283 5.57096C12.5638 4.70646 11.5182 4.18897 10.2917 4.0185C10.0674 3.99211 9.87947 3.89975 9.728 3.74142C9.57653 3.58308 9.50053 3.3915 9.5 3.16667C9.49947 2.94183 9.57864 2.75394 9.7375 2.603C9.89636 2.45206 10.0811 2.38925 10.2917 2.41458C11.9542 2.59931 13.3726 3.27882 14.5469 4.45313C15.7212 5.62743 16.4007 7.04583 16.5854 8.70833C16.6118 8.91944 16.549 9.10417 16.397 9.2625C16.245 9.42083 16.0571 9.5 15.8333 9.5ZM12.5281 9.5C12.3566 9.5 12.2049 9.44062 12.0729 9.32187C11.941 9.20312 11.842 9.04479 11.776 8.84688C11.6705 8.46424 11.4691 8.12461 11.172 7.828C10.8749 7.53139 10.5352 7.33004 10.1531 7.22396C9.95521 7.15799 9.79688 7.05903 9.67813 6.92708C9.55938 6.79514 9.5 6.63681 9.5 6.45208C9.5 6.18819 9.59236 5.97392 9.77708 5.80925C9.96181 5.64458 10.1663 5.58838 10.3906 5.64063C11.1295 5.81215 11.7663 6.16524 12.3009 6.69988C12.8356 7.23451 13.1884 7.87101 13.3594 8.60938C13.4122 8.83368 13.3528 9.03819 13.1812 9.22292C13.0097 9.40764 12.792 9.5 12.5281 9.5ZM15.7938 16.625C14.1444 16.625 12.5149 16.2656 10.9052 15.5468C9.29549 14.8279 7.8309 13.8085 6.51146 12.4885C5.19201 11.1686 4.17287 9.70399 3.45404 8.09479C2.73521 6.4856 2.37553 4.85608 2.375 3.20625C2.375 2.96875 2.45417 2.77083 2.6125 2.6125C2.77083 2.45417 2.96875 2.375 3.20625 2.375H6.4125C6.59722 2.375 6.76215 2.43781 6.90729 2.56342C7.05243 2.68903 7.13819 2.83733 7.16458 3.00833L7.67917 5.77917C7.70556 5.99028 7.69896 6.1684 7.65938 6.31354C7.61979 6.45868 7.54722 6.58403 7.44167 6.68958L5.52188 8.62917C5.78576 9.11736 6.099 9.58893 6.46158 10.0439C6.82417 10.4988 7.22343 10.9377 7.65938 11.3604C8.0684 11.7694 8.49722 12.1489 8.94583 12.4988C9.39444 12.8488 9.86944 13.1686 10.3708 13.4583L12.2313 11.5979C12.35 11.4792 12.5052 11.3902 12.6968 11.3311C12.8883 11.272 13.0762 11.2554 13.2604 11.2813L15.9917 11.8354C16.1764 11.8882 16.3281 11.984 16.4469 12.1228C16.5656 12.2616 16.625 12.4165 16.625 12.5875V15.7938C16.625 16.0313 16.5458 16.2292 16.3875 16.3875C16.2292 16.5458 16.0313 16.625 15.7938 16.625ZM4.76979 7.125L6.07604 5.81875L5.73958 3.95833H3.97813C4.0441 4.49931 4.13646 5.03368 4.25521 5.56146C4.37396 6.08924 4.54549 6.61042 4.76979 7.125ZM11.8552 14.2104C12.3698 14.4347 12.8944 14.6128 13.429 14.7448C13.9637 14.8767 14.5012 14.9625 15.0417 15.0021V13.2604L13.1812 12.8844L11.8552 14.2104Z" fill="black"/>
</svg>
